# xmcd
#
# Track frame offsets: 
#        150
#        20387
#        39412
#        62283
#        84011
#        98626
#        122745
#        143655
#        166079
#        189918
#        218519
#
# Disc length: 3208 seconds
#
# Revision: 0
# Processed by: cddbd v1.5.2PL0 Copyright (c) Steve Scherf et al.
# Submitted via: ExactAudioCopy v0.99pb4
#
DISCID=750c860b
DTITLE=Bob Hart  - Blue To the Bone
DYEAR=2007
DGENRE=Blues/Rock
TTITLE0=1. Take the Money and Run
TTITLE1=2. The Way You Love the Night
TTITLE2=3. Asstified
TTITLE3=4. Choose the Blues
TTITLE4=5. Blue to the Bone
TTITLE5=6. Have You Got My Back? 
TTITLE6=7. Lovin You Is All My Heart Can Do
TTITLE7=8. 24/7 Blues 
TTITLE8=9. Listen to Your Heart 
TTITLE9=10. Whisper
TTITLE10=11. Another Lonely Night
EXTD=
EXTT0=
EXTT1=
EXTT2=
EXTT3=
EXTT4=
EXTT5=
EXTT6=
EXTT7=
EXTT8=
EXTT9=
EXTT10=
PLAYORDER=
